<svg width="1638" height="270" viewBox="0 0 1638 270" fill="none" xmlns="http://www.w3.org/2000/svg">
<path d="M65.25 62.69L49.59 149.4H81.2L65.25 62.69ZM44.95 176.95L37.12 219H7.83L44.95 25.57H85.84L124.99 219H94.25L86.13 176.95H44.95ZM170.28 219H143.31V25.57H170.28V219ZM222.389 219H195.419V25.57H222.389V219ZM290.739 111.99C297.119 111.99 301.952 111.603 305.239 110.83C308.719 109.863 311.619 108.22 313.939 105.9C318.772 101.067 321.189 93.2367 321.189 82.41C321.189 71.7767 318.772 64.0433 313.939 59.21C311.619 56.89 308.719 55.3433 305.239 54.57C301.952 53.6033 297.119 53.12 290.739 53.12H279.719V111.99H290.739ZM279.719 219H249.849V25.57H296.539C305.432 25.57 312.875 26.5367 318.869 28.47C324.862 30.21 330.179 33.11 334.819 37.17C346.419 47.03 352.219 61.6267 352.219 80.96C352.219 105.513 343.519 122.237 326.119 131.13L354.539 219H323.219L297.699 139.54H279.719V219ZM401.07 170.86C401.07 180.14 402.423 186.907 405.13 191.16C407.837 195.22 412.187 197.25 418.18 197.25C424.367 197.25 428.813 195.22 431.52 191.16C434.227 186.907 435.58 180.14 435.58 170.86V123.01C435.58 113.73 434.227 107.06 431.52 103C428.813 98.7467 424.367 96.62 418.18 96.62C412.187 96.62 407.837 98.7467 405.13 103C402.423 107.06 401.07 113.73 401.07 123.01V170.86ZM462.55 169.12C462.55 174.727 462.357 179.657 461.97 183.91C461.583 188.163 460.907 191.933 459.94 195.22C459.167 198.313 458.007 201.117 456.46 203.63C455.107 205.95 453.367 208.173 451.24 210.3C443.12 218.033 432.197 221.9 418.47 221.9C404.55 221.9 393.53 218.033 385.41 210.3C383.283 208.173 381.447 205.95 379.9 203.63C378.547 201.117 377.387 198.313 376.42 195.22C375.647 191.933 375.067 188.163 374.68 183.91C374.293 179.657 374.1 174.727 374.1 169.12V124.75C374.1 119.143 374.293 114.31 374.68 110.25C375.067 105.997 375.647 102.323 376.42 99.23C377.387 95.9433 378.547 93.0433 379.9 90.53C381.447 88.0167 383.283 85.6967 385.41 83.57C393.53 75.8367 404.55 71.97 418.47 71.97C432.197 71.97 443.12 75.8367 451.24 83.57C453.367 85.6967 455.107 88.0167 456.46 90.53C458.007 93.0433 459.167 95.9433 459.94 99.23C460.907 102.323 461.583 105.997 461.97 110.25C462.357 114.31 462.55 119.143 462.55 124.75V169.12ZM572.972 219H546.002V200.44C539.815 207.787 533.822 213.103 528.022 216.39C522.415 219.483 516.422 221.03 510.042 221.03C494.382 221.03 486.552 209.817 486.552 187.39V74.87H513.522V180.43C513.522 186.617 514.199 190.967 515.552 193.48C517.099 195.993 519.805 197.25 523.672 197.25C527.539 197.25 531.309 195.993 534.982 193.48C538.849 190.967 542.522 187.39 546.002 182.75V74.87H572.972V219ZM625.104 93.43C631.291 86.0833 637.187 80.8633 642.794 77.77C648.594 74.4833 654.684 72.84 661.064 72.84C676.724 72.84 684.554 84.0533 684.554 106.48V219H657.584V113.44C657.584 107.253 656.811 102.903 655.264 100.39C653.911 97.8767 651.301 96.62 647.434 96.62C639.701 96.62 632.257 101.453 625.104 111.12V219H598.134V74.87H625.104V93.43ZM769.746 103.87C766.073 101.163 762.786 99.3267 759.886 98.36C756.986 97.2 753.989 96.62 750.896 96.62C748.189 96.62 745.676 97.2967 743.356 98.65C741.036 100.003 739.393 101.84 738.426 104.16C737.846 105.32 737.363 106.577 736.976 107.93C736.589 109.09 736.299 110.54 736.106 112.28C736.106 114.02 736.009 116.147 735.816 118.66C735.816 121.173 735.816 124.267 735.816 127.94V165.93C735.816 169.797 735.816 172.987 735.816 175.5C736.009 177.82 736.106 179.85 736.106 181.59C736.299 183.33 736.589 184.877 736.976 186.23C737.363 187.39 737.846 188.55 738.426 189.71C739.393 192.03 741.036 193.867 743.356 195.22C745.676 196.573 748.189 197.25 750.896 197.25C753.989 197.25 756.986 196.767 759.886 195.8C762.786 194.64 766.073 192.707 769.746 190V103.87ZM769.746 219V204.79C763.753 210.397 758.243 214.553 753.216 217.26C748.189 219.773 743.066 221.03 737.846 221.03C727.213 221.03 719.479 216.1 714.646 206.24C712.519 201.407 710.973 195.993 710.006 190C709.233 183.813 708.846 175.21 708.846 164.19V129.68C708.846 124.073 708.943 119.24 709.136 115.18C709.329 110.927 709.619 107.253 710.006 104.16C710.586 100.873 711.166 97.9733 711.746 95.46C712.519 92.7533 713.486 90.1433 714.646 87.63C719.479 77.77 727.213 72.84 737.846 72.84C743.066 72.84 748.189 74.1933 753.216 76.9C758.243 79.4133 763.753 83.4733 769.746 89.08V25.57H796.716V219H769.746Z" fill="black"/>
<rect x="839" y="1" width="799" height="267" rx="40" fill="#01163E"/>
<path d="M1001 115.75C1006.5 115.75 1010.67 115.417 1013.5 114.75C1016.5 113.917 1019 112.5 1021 110.5C1025.17 106.333 1027.25 99.5833 1027.25 90.25C1027.25 81.0833 1025.17 74.4167 1021 70.25C1019 68.25 1016.5 66.9167 1013.5 66.25C1010.67 65.4167 1006.5 65 1001 65H991.5V115.75H1001ZM991.5 208H965.75V41.25H1006C1013.67 41.25 1020.08 42.0833 1025.25 43.75C1030.42 45.25 1035 47.75 1039 51.25C1049 59.75 1054 72.3333 1054 89C1054 110.167 1046.5 124.583 1031.5 132.25L1056 208H1029L1007 139.5H991.5V208ZM1126.61 122.5C1126.61 115 1125.36 109.667 1122.86 106.5C1120.53 103.333 1116.7 101.75 1111.36 101.75C1106.03 101.75 1102.11 103.333 1099.61 106.5C1097.28 109.667 1096.11 115 1096.11 122.5V129.25H1126.61V122.5ZM1096.11 149.75V160.75C1096.11 171.583 1097.2 179.083 1099.36 183.25C1101.7 187.25 1105.86 189.25 1111.86 189.25C1119.36 189.25 1124.03 185.583 1125.86 178.25C1126.2 176.917 1126.45 175.5 1126.61 174C1126.78 172.333 1126.86 169.333 1126.86 165H1150.11C1150.11 169.5 1150.03 173.25 1149.86 176.25C1149.7 179.25 1149.36 181.917 1148.86 184.25C1148.53 186.417 1148.03 188.333 1147.36 190C1146.7 191.5 1145.86 193.083 1144.86 194.75C1138.53 205.25 1127.53 210.5 1111.86 210.5C1097.36 210.5 1086.95 206.167 1080.61 197.5C1077.78 193.667 1075.78 189.25 1074.61 184.25C1073.45 179.083 1072.86 172.25 1072.86 163.75V126.75C1072.86 121.75 1073.03 117.5 1073.36 114C1073.7 110.333 1074.2 107.167 1074.86 104.5C1075.7 101.667 1076.7 99.25 1077.86 97.25C1079.2 95.0833 1080.86 93.0833 1082.86 91.25C1089.86 84.5833 1099.28 81.25 1111.11 81.25C1123.95 81.25 1133.7 85.0833 1140.36 92.75C1142.2 94.75 1143.7 96.9167 1144.86 99.25C1146.03 101.417 1146.95 103.917 1147.61 106.75C1148.45 109.583 1149.03 112.833 1149.36 116.5C1149.7 120.167 1149.86 124.417 1149.86 129.25V149.75H1096.11ZM1193.03 208L1162.53 83.75H1187.28L1205.03 162.75L1220.78 83.75H1245.28L1217.53 208H1193.03ZM1281.68 65.5H1258.43V41.25H1281.68V65.5ZM1281.68 208H1258.43V83.75H1281.68V208ZM1356.35 122.5C1356.35 115 1355.1 109.667 1352.6 106.5C1350.27 103.333 1346.43 101.75 1341.1 101.75C1335.77 101.75 1331.85 103.333 1329.35 106.5C1327.02 109.667 1325.85 115 1325.85 122.5V129.25H1356.35V122.5ZM1325.85 149.75V160.75C1325.85 171.583 1326.93 179.083 1329.1 183.25C1331.43 187.25 1335.6 189.25 1341.6 189.25C1349.1 189.25 1353.77 185.583 1355.6 178.25C1355.93 176.917 1356.18 175.5 1356.35 174C1356.52 172.333 1356.6 169.333 1356.6 165H1379.85C1379.85 169.5 1379.77 173.25 1379.6 176.25C1379.43 179.25 1379.1 181.917 1378.6 184.25C1378.27 186.417 1377.77 188.333 1377.1 190C1376.43 191.5 1375.6 193.083 1374.6 194.75C1368.27 205.25 1357.27 210.5 1341.6 210.5C1327.1 210.5 1316.68 206.167 1310.35 197.5C1307.52 193.667 1305.52 189.25 1304.35 184.25C1303.18 179.083 1302.6 172.25 1302.6 163.75V126.75C1302.6 121.75 1302.77 117.5 1303.1 114C1303.43 110.333 1303.93 107.167 1304.6 104.5C1305.43 101.667 1306.43 99.25 1307.6 97.25C1308.93 95.0833 1310.6 93.0833 1312.6 91.25C1319.6 84.5833 1329.02 81.25 1340.85 81.25C1353.68 81.25 1363.43 85.0833 1370.1 92.75C1371.93 94.75 1373.43 96.9167 1374.6 99.25C1375.77 101.417 1376.68 103.917 1377.35 106.75C1378.18 109.583 1378.77 112.833 1379.1 116.5C1379.43 120.167 1379.6 124.417 1379.6 129.25V149.75H1325.85ZM1473.27 208L1457.27 131.75L1441.52 208H1419.52L1393.02 83.75H1416.77L1431.77 161.25L1447.02 83.75H1468.27L1484.02 161.25L1498.02 83.75H1521.52L1495.27 208H1473.27Z" fill="#FBBD04"/>
</svg>
